<?xml version="1.0" encoding="iso-8859-1"?>
<!-- Generator: Adobe Illustrator 19.2.1, SVG Export Plug-In . SVG Version: 6.00 Build 0)  -->
<svg version="1.1" xmlns="http://www.w3.org/2000/svg" xmlns:xlink="http://www.w3.org/1999/xlink" x="0px" y="0px"
	 viewBox="0 0 32 32" style="enable-background:new 0 0 32 32;" xml:space="preserve">
<g id="Layer_43">
	<g>
		<g>
			<path style="fill:#95CC29;" d="M26.999,16c-2.761,0-5,2.239-5,5c0,0.643,0.133,1.254,0.354,1.818L16,29.172V32h2.827l6.353-6.353
				C25.745,25.868,26.355,26,26.999,26c2.761,0,5-2.239,5-5S29.76,16,26.999,16z M26.999,20c-0.552,0-1-0.448-1-1s0.448-1,1-1
				s1,0.448,1,1S27.55,20,26.999,20z"/>
		</g>
		<g>
			<path style="fill:#666666;" d="M13,0C6.924,0.001,2,4.924,2,11v3.184C0,14.597,0,15.695,0,17v12c0,1.657,1.341,2.999,2.999,3H14
				v-2H2.999C2.447,29.999,2,29.552,2,29V17c0-0.552,0.447-0.999,0.999-1h19.957l0.305,0.026l0.007-0.08
				c0.163-0.046,0.318-0.118,0.439-0.239C23.893,15.521,24,15.263,24,15v-4C24,4.924,19.075,0.001,13,0z M22,14H4v-3
				c0-2.489,1.005-4.732,2.635-6.364C8.267,3.006,10.51,2,12.999,2c2.488,0,4.733,1.006,6.365,2.636C20.994,6.268,22,8.511,22,11V14
				z"/>
			<path style="fill:#666666;" d="M12.999,18c-1.656,0.002-2.998,1.342-2.999,3C10.001,22.305,10,23.402,12,23.816V27
				c0,0.552,0.448,1,1,1s1-0.448,1-1v-3.184c2-0.414,1.998-1.511,1.999-2.816C15.998,19.342,14.655,18.002,12.999,18z M12.999,22
				c-0.549-0.001-0.999-0.451-1-1c0.001-0.549,0.451-0.999,1-1c0.549,0.001,0.999,0.451,1,1C13.998,21.549,13.547,21.999,12.999,22z
				"/>
		</g>
	</g>
	<rect style="fill:none;" width="32" height="32"/>
</g>
<g id="Layer_1">
</g>
</svg>
