<svg xmlns="http://www.w3.org/2000/svg" width="256" height="256" viewBox="0 0 100 100"><rect width="100" height="100" rx="50" fill="#2108d3"></rect><path d="M19.80 60.59L19.80 60.59Q22.72 60.59 23.96 59.57Q25.19 58.55 25.19 57.12L25.19 57.12Q25.19 55.80 24.23 55.00Q23.27 54.21 21.34 53.60L21.34 53.60L18.54 52.72Q16.23 52.01 14.36 51.15Q12.49 50.30 11.17 49.12Q9.85 47.94 9.11 46.31Q8.36 44.69 8.36 42.38L8.36 42.38Q8.36 37.76 11.86 35.07Q15.35 32.37 21.56 32.37L21.56 32.37Q23.93 32.37 25.94 32.70Q27.94 33.03 29.37 33.72Q30.80 34.41 31.63 35.40Q32.45 36.39 32.45 37.71L32.45 37.71Q32.45 38.97 31.82 39.93Q31.19 40.90 30.36 41.56L30.36 41.56Q29.10 40.68 27.01 40.07Q24.92 39.47 22.44 39.47L22.44 39.47Q19.80 39.47 18.54 40.29Q17.27 41.12 17.27 42.38L17.27 42.38Q17.27 43.48 18.10 44.06Q18.92 44.64 20.68 45.24L20.68 45.24L23.65 46.23Q26.24 47.11 28.19 48.13Q30.14 49.15 31.46 50.44Q32.78 51.73 33.44 53.41Q34.10 55.09 34.10 57.23L34.10 57.23Q34.10 59.54 33.20 61.44Q32.29 63.34 30.50 64.71Q28.71 66.09 26.10 66.86Q23.49 67.63 20.08 67.63L20.08 67.63Q17.55 67.63 15.40 67.21Q13.26 66.80 11.69 66.03Q10.12 65.26 9.22 64.13Q8.31 63.01 8.31 61.58L8.31 61.58Q8.31 60.09 9.16 59.10Q10.01 58.11 11.06 57.51L11.06 57.51Q12.54 58.72 14.77 59.65Q17.00 60.59 19.80 60.59ZM44.39 66.80L44.39 66.80Q42.30 66.80 41.06 65.56Q39.82 64.33 39.82 62.24L39.82 62.24L39.82 33.25Q40.43 33.14 41.56 32.98Q42.68 32.81 43.78 32.81L43.78 32.81Q46.26 32.81 47.36 33.64Q48.46 34.46 48.46 36.88L48.46 36.88L48.46 59.82L61.66 59.82Q61.99 60.37 62.29 61.25Q62.59 62.13 62.59 63.17L62.59 63.17Q62.59 64.99 61.80 65.89Q61.00 66.80 59.62 66.80L59.62 66.80L44.39 66.80ZM72.50 33.36L90.81 33.36Q91.14 33.91 91.41 34.79Q91.69 35.67 91.69 36.72L91.69 36.72Q91.69 38.53 90.89 39.41Q90.09 40.29 88.66 40.29L88.66 40.29L76.45 40.29L76.45 47.50L88.94 47.50Q89.27 48.10 89.57 48.93Q89.88 49.75 89.88 50.85L89.88 50.85Q89.88 52.67 89.05 53.52Q88.22 54.37 86.85 54.37L86.85 54.37L76.56 54.37L76.56 66.64Q75.96 66.80 74.86 66.94Q73.76 67.08 72.55 67.08L72.55 67.08Q69.97 67.08 68.95 66.20Q67.93 65.32 67.93 63.01L67.93 63.01L67.93 37.93Q67.93 35.84 69.17 34.60Q70.41 33.36 72.50 33.36L72.50 33.36Z" fill="#fff"></path></svg>